<svg width="20" height="20" viewBox="0 0 26 26" fill="none" xmlns="http://www.w3.org/2000/svg">
<path d="M19.1714 7.04286L17.9386 5.81L16.9286 6.82L19.2671 9.15857L23.34 4.27286L22.2414 3.35714L19.1714 7.04286Z" fill="white"/>
<path d="M10.5 0.5H1.92857C1.14071 0.5 0.5 1.14071 0.5 1.92857V10.5C0.5 11.2879 1.14071 11.9286 1.92857 11.9286H10.5C11.2879 11.9286 11.9286 11.2879 11.9286 10.5V1.92857C11.9286 1.14071 11.2879 0.5 10.5 0.5ZM1.92857 10.5V1.92857H10.5L10.5014 10.5H1.92857Z" fill="white"/>
<path d="M24.0714 0.5H15.5C14.7121 0.5 14.0714 1.14071 14.0714 1.92857V10.5C14.0714 11.2879 14.7121 11.9286 15.5 11.9286H24.0714C24.8593 11.9286 25.5 11.2879 25.5 10.5V1.92857C25.5 1.14071 24.8593 0.5 24.0714 0.5ZM15.5 10.5V1.92857H24.0714L24.0729 10.5H15.5Z" fill="white"/>
<path d="M24.0714 14.0714H15.5C14.7121 14.0714 14.0714 14.7121 14.0714 15.5V24.0714C14.0714 24.8593 14.7121 25.5 15.5 25.5H24.0714C24.8593 25.5 25.5 24.8593 25.5 24.0714V15.5C25.5 14.7121 24.8593 14.0714 24.0714 14.0714ZM15.5 24.0714V15.5H24.0714L24.0729 24.0714H15.5Z" fill="white"/>
<path d="M10.5 14.0714H1.92857C1.14071 14.0714 0.5 14.7121 0.5 15.5V24.0714C0.5 24.8593 1.14071 25.5 1.92857 25.5H10.5C11.2879 25.5 11.9286 24.8593 11.9286 24.0714V15.5C11.9286 14.7121 11.2879 14.0714 10.5 14.0714ZM1.92857 24.0714V15.5H10.5L10.5014 24.0714H1.92857Z" fill="white"/>
</svg>
