<svg width="115" height="140" viewBox="0 0 98 119" fill="none" xmlns="http://www.w3.org/2000/svg">
<path opacity="0.23" d="M77.2561 45.5601V37.1538H61.5257V28.7632H73.5235V20.357H24.9051V28.7632H35.4914V37.1695H13.0642V45.5758H22.6781V53.982H0V62.3883H31.6333V70.7946H16.7969V79.2009H38.7535V87.6071H24.121V96.0134H69.4302V87.6071H59.6124V79.2009H93.9903V70.7946H76.7856V62.3883H83.9529V53.982H70.1359V45.5758H77.2561V45.5601ZM52.4137 53.9507H40.4003V45.5444H52.4137V53.9507Z" fill="#A9DBED"/>
<path opacity="0.23" d="M14.8992 20.2158H6.21063V28.6221H14.8992V20.2158Z" fill="#A9DBED"/>
<path opacity="0.23" d="M97.2837 37.1538H88.5952V45.5601H97.2837V37.1538Z" fill="#A9DBED"/>
<path d="M41.8118 100.169H25.5012V103.933H41.8118V100.169Z" fill="#26A8A1"/>
<path d="M20.5766 100.169H12.9545V103.933H20.5766V100.169Z" fill="#26A8A1"/>
<path d="M59.5967 100.169H48.6027V103.933H59.5967V100.169Z" fill="#26A8A1"/>
<path d="M73.1157 100.169H66.7953V103.933H73.1157V100.169Z" fill="#26A8A1"/>
<path d="M81.2711 111.461H74.9507V115.225H81.2711V111.461Z" fill="#26A8A1"/>
<path d="M29.785 111.409H53.5139V107.645H29.785V111.409Z" fill="#26A8A1"/>
<path d="M62.8273 111.472H70.7945V107.708H62.8273V111.472Z" fill="#26A8A1"/>
<path d="M46.4474 115.236H66.2869V111.472H46.4474V115.236Z" fill="#26A8A1"/>
<path d="M37.7521 119H55.8978V115.236H37.7521V119Z" fill="#26A8A1"/>
<path d="M60.522 62.3413H45.9836V70.7475H60.522V62.3413Z" fill="#30B5B2"/>
<path d="M50.814 28.7946H29.9865V37.2009H50.814V28.7946Z" fill="#30B5B2"/>
<path d="M74.2292 45.5601H32.9193V53.9664H74.2292V45.5601Z" fill="#30B5B2"/>
<path d="M68.301 70.7476H45.4347V79.1538H68.301V70.7476Z" fill="#30B5B2"/>
<path d="M53.1038 103.933H37.7498V107.697H53.1038V103.933Z" fill="#26A8A1"/>
<path d="M48.932 99.8088H44.8857V105.847H48.932V99.8088Z" fill="#FBC3AA"/>
<path d="M53.1822 108.748H41.3412C41.3412 106.098 43.4899 103.933 46.156 103.933H53.1822V108.748Z" fill="#DD3142"/>
<path d="M49.2928 108.748C49.2928 105.549 51.8962 102.945 55.0956 102.945C58.295 102.945 60.8985 105.549 60.8985 108.748H49.2928Z" fill="#DD3142"/>
<path d="M60.8984 109.579H41.3413C41.106 109.579 40.9178 109.391 40.9178 109.156C40.9178 108.921 41.106 108.733 41.3413 108.733H60.8984C61.1337 108.733 61.3219 108.921 61.3219 109.156C61.3219 109.391 61.1337 109.579 60.8984 109.579Z" fill="#212D47"/>
<path d="M55.4093 104.373C56.1282 104.373 56.711 104.176 56.711 103.933C56.711 103.691 56.1282 103.494 55.4093 103.494C54.6903 103.494 54.1075 103.691 54.1075 103.933C54.1075 104.176 54.6903 104.373 55.4093 104.373Z" fill="white"/>
<path d="M47.7558 104.357C47.7558 104.279 47.7715 104.2 47.8028 104.122C47.9283 103.871 48.2106 103.777 48.4615 103.902" stroke="#D32A3B" stroke-width="3" stroke-miterlimit="10" stroke-linecap="round" stroke-linejoin="round"/>
<path d="M48.6654 104.357C48.6654 104.279 48.6811 104.2 48.7125 104.122C48.8379 103.871 49.1202 103.777 49.3712 103.902" stroke="#D32A3B" stroke-width="3" stroke-miterlimit="10" stroke-linecap="round" stroke-linejoin="round"/>
<path d="M49.528 104.357C49.528 104.279 49.5437 104.2 49.5751 104.122C49.7005 103.871 49.9828 103.777 50.2338 103.902" stroke="#D32A3B" stroke-width="3" stroke-miterlimit="10" stroke-linecap="round" stroke-linejoin="round"/>
<path d="M70.7475 43.3488H68.5989C67.8147 43.3488 67.1874 42.7214 67.1874 41.9373V29.6729C67.1874 28.8887 67.8147 28.2614 68.5989 28.2614H70.7475C71.5317 28.2614 72.159 28.8887 72.159 29.6729V41.9373C72.159 42.7057 71.5317 43.3488 70.7475 43.3488Z" fill="#BCBCBC"/>
<path d="M72.112 43.3488H69.9634C69.1792 43.3488 68.5519 42.7214 68.5519 41.9373V29.6729C68.5519 28.8887 69.1792 28.2614 69.9634 28.2614H72.112C72.8962 28.2614 73.5235 28.8887 73.5235 29.6729V41.9373C73.5235 42.7057 72.8962 43.3488 72.112 43.3488Z" fill="#F7F7F7"/>
<path d="M66.0426 46.2502V52.9626C66.0426 55.9738 63.6587 58.5145 60.6475 58.593C57.5422 58.6714 54.9858 56.162 54.9858 53.0724V43.9134C54.9858 42.2196 53.6214 40.8551 51.9276 40.8551C50.2338 40.8551 48.8693 42.2196 48.8693 43.9134V53.0724C48.8693 59.5026 54.0762 64.7095 60.5064 64.7095C66.9365 64.7095 72.1434 59.5026 72.1434 53.0724V46.2502H66.0426Z" fill="#DD3142"/>
<path d="M66.0426 46.2502V52.9626C66.0426 55.9738 63.6587 58.5145 60.6475 58.593C57.5422 58.6714 54.9858 56.162 54.9858 53.0724V43.9134C54.9858 42.2196 53.6214 40.8551 51.9276 40.8551C50.2338 40.8551 48.8693 42.2196 48.8693 43.9134V53.0724C48.8693 59.5026 54.0762 64.7095 60.5064 64.7095C66.9365 64.7095 72.1434 59.5026 72.1434 53.0724V46.2502H66.0426Z" fill="#DD3142"/>
<path d="M51.9275 42.4234C52.7431 42.4234 53.4174 43.0978 53.4174 43.9134V53.0724C53.4174 54.9701 54.1546 56.7423 55.5033 58.0911C56.8521 59.4399 58.6243 60.177 60.522 60.177C60.5847 60.177 60.6318 60.177 60.6945 60.177C64.5056 60.0829 67.6265 56.8521 67.6265 52.9783V47.8342L68.7714 46.2659H66.0582V52.9783C66.0582 55.9895 63.6743 58.5302 60.6631 58.6086C57.5578 58.6871 55.0015 56.1777 55.0015 53.0881V43.929C55.0015 42.2352 53.637 40.8708 51.9432 40.8708C51.5041 40.8708 51.0806 40.9649 50.6885 41.1374C51.3002 41.9059 51.755 42.4234 51.9275 42.4234Z" fill="#D82B45"/>
<path d="M50.8141 68.7715H42.4862V101.644H50.8141V68.7715Z" fill="#212D47"/>
<path d="M50.8141 99.8088H42.4862V101.644H50.8141V99.8088Z" fill="#2D3854"/>
<path d="M45.3719 68.7715H37.044V101.644H45.3719V68.7715Z" fill="#2D3854"/>
<path d="M43.2233 99.8088H39.177V105.847H43.2233V99.8088Z" fill="#FBC3AA"/>
<path d="M45.3719 99.8088H37.044V101.644H45.3719V99.8088Z" fill="#394663"/>
<path d="M50.2651 73.8528H36.9029C35.3032 73.8528 34.0015 72.5511 34.0015 70.9514V68.4421H53.1665V70.9514C53.1665 72.5511 51.8648 73.8528 50.2651 73.8528Z" fill="#2D3854"/>
<path d="M39.4279 66.5444H26.4892C23.3839 66.5444 21.0784 62.6549 21.7528 58.5459L23.4623 48.0538C24.1523 43.8506 26.8969 40.8394 30.0806 40.8394H35.2561L39.4279 66.5444Z" fill="#22314C"/>
<path d="M28.8573 63.4234C26.5676 63.4234 24.764 61.4787 24.9208 59.2046L25.2031 55.3308H32.5116L32.7939 59.2046C32.9507 61.4787 31.1471 63.4234 28.8573 63.4234Z" fill="#2D3854"/>
<path d="M53.1665 65.0545H34.0015V69.3988H53.1665V65.0545Z" fill="#DD3142"/>
<path d="M52.7117 67.9089H33.6564C33.4055 67.9089 33.2016 67.705 33.2016 67.454V44.9014C33.2016 42.6587 35.0209 40.8551 37.2479 40.8551H50.4062C51.9275 40.8551 53.1508 42.0941 53.1508 43.5997V67.454C53.1665 67.705 52.9626 67.9089 52.7117 67.9089Z" fill="#E53E46"/>
<path d="M45.9051 45.1053H42.4548C41.6549 45.1053 41.0119 44.4623 41.0119 43.6624V40.8708H48.289V42.7214C48.289 44.0388 47.2225 45.1053 45.9051 45.1053Z" fill="#DD3142"/>
<path d="M47.9753 38.2046L44.3682 38.6124L44.4623 40.8708H47.9753C50.8297 40.8708 53.1508 43.1919 53.1508 46.0463V65.4623C54.6251 65.4623 55.817 64.2703 55.817 62.7961V46.0463C55.817 41.7177 52.3196 38.2046 47.9753 38.2046Z" fill="#2D3854"/>
<path d="M54.3585 45.6072C54.3585 42.298 51.6766 39.6161 48.3674 39.6161H45.6699V38.2046H44.4623V40.8708H47.9753C50.8297 40.8708 53.1508 43.1919 53.1508 46.0463V65.4623C53.59 65.4623 53.9977 65.3525 54.3585 65.18V45.6072Z" fill="#25314C"/>
<path d="M45.6699 43.7565H42.69C41.7804 43.7565 41.0433 43.0194 41.0433 42.1098V33.4683H47.3166V42.1098C47.3166 43.0194 46.5795 43.7565 45.6699 43.7565Z" fill="#FBC3AA"/>
<path opacity="0.76" d="M43.1605 33.8133H47.3166V33.4683H41.0433V42.1098C41.0433 43.0194 41.7804 43.7565 42.69 43.7565H43.1762V33.8133H43.1605Z" fill="#F2AD91"/>
<path d="M41.0433 38.0007C42.2195 38.2046 44.2427 38.2987 46.3913 37.3577C46.7363 37.2009 47.0343 37.0441 47.3166 36.8559V33.4683H41.0433V38.0007Z" fill="#ED9C80"/>
<path d="M36.6206 38.4869H34.0799C32.7625 38.4869 31.7117 39.5534 31.7117 40.8551V41.4981L33.1232 40.9649C35.3659 40.9649 37.2009 42.4862 37.2009 44.7289V63C37.2009 64.3644 38.2987 65.4623 39.6632 65.4623C41.0276 65.4623 42.1255 64.3644 42.1255 63V43.9604C42.0941 40.9335 39.6475 38.4869 36.6206 38.4869Z" fill="#2D3854"/>
<path d="M38.7536 44.7289V65.2898C37.8283 64.929 37.1852 64.0508 37.1852 63V47.4892C38.0478 46.6266 38.5967 45.4346 38.5967 44.1329C38.5967 43.6938 38.534 43.2703 38.4242 42.8626C38.6281 43.4272 38.7536 44.0702 38.7536 44.7289Z" fill="#25314C"/>
<path d="M69.0067 48.9477C71.432 48.9477 73.398 46.9816 73.398 44.5564C73.398 42.1311 71.432 40.165 69.0067 40.165C66.5814 40.165 64.6154 42.1311 64.6154 44.5564C64.6154 46.9816 66.5814 48.9477 69.0067 48.9477Z" fill="#FBC3AA"/>
<path opacity="0.76" d="M70.8573 47.4892C68.0971 47.4892 65.8543 45.2464 65.8543 42.4862C65.8543 42.0941 65.9014 41.7177 65.9798 41.357C65.1329 42.1568 64.5997 43.3017 64.5997 44.5564C64.5997 46.9873 66.5601 48.9477 68.991 48.9477C70.4182 48.9477 71.6729 48.2733 72.4884 47.2225C71.9865 47.3951 71.4376 47.4892 70.8573 47.4892Z" fill="#F2AD91"/>
<path d="M47.4892 108.748H35.6483C35.6483 106.098 37.7969 103.933 40.463 103.933H47.4892V108.748Z" fill="#DD3142"/>
<path d="M43.5997 108.748C43.5997 105.549 46.2031 102.945 49.4025 102.945C52.6019 102.945 55.2053 105.549 55.2053 108.748H43.5997Z" fill="#E53E46"/>
<path d="M55.2054 109.579H35.6482C35.413 109.579 35.2248 109.391 35.2248 109.156C35.2248 108.921 35.413 108.733 35.6482 108.733H55.2054C55.4406 108.733 55.6288 108.921 55.6288 109.156C55.6131 109.391 55.4249 109.579 55.2054 109.579Z" fill="#212D47"/>
<path d="M51.1277 104.373C51.8466 104.373 52.4294 104.176 52.4294 103.933C52.4294 103.691 51.8466 103.494 51.1277 103.494C50.4088 103.494 49.826 103.691 49.826 103.933C49.826 104.176 50.4088 104.373 51.1277 104.373Z" fill="white"/>
<path d="M42.0627 104.357C42.0627 104.279 42.0784 104.2 42.1098 104.122C42.2353 103.871 42.5176 103.777 42.7685 103.902" stroke="#D32A3B" stroke-width="3" stroke-miterlimit="10" stroke-linecap="round" stroke-linejoin="round"/>
<path d="M42.9724 104.357C42.9724 104.279 42.988 104.2 43.0194 104.122C43.1449 103.871 43.4272 103.777 43.6781 103.902" stroke="#D32A3B" stroke-width="3" stroke-miterlimit="10" stroke-linecap="round" stroke-linejoin="round"/>
<path d="M43.8193 104.357C43.8193 104.279 43.835 104.2 43.8663 104.122C43.9918 103.871 44.2741 103.777 44.525 103.902" stroke="#D32A3B" stroke-width="3" stroke-miterlimit="10" stroke-linecap="round" stroke-linejoin="round"/>
<path d="M46.0777 35.5855C40.714 36.6049 35.5385 33.0605 34.5347 27.6968L31.3353 10.7588L55.0642 6.289L57.4481 18.9298C58.9223 26.6617 53.8252 34.1269 46.0777 35.5855Z" fill="#FBC3AA"/>
<path opacity="0.76" d="M41.0433 27.6968L37.8439 10.7588L55.2838 7.46528L55.0642 6.27335L31.3353 10.7431L34.5347 27.6811C35.5541 33.0448 40.714 36.5736 46.0777 35.5698C46.5795 35.4757 47.0814 35.3503 47.5519 35.2091C44.3054 34.1113 41.7334 31.3196 41.0433 27.6968Z" fill="#F2AD91"/>
<path d="M55.4877 7.54367L54.6251 2.58774L31.1001 8.43762C30.363 8.62582 29.9082 9.33157 30.0493 10.0844L33.0135 25.8304L36.9029 25.0933L35.0837 13.0328L55.4877 7.54367Z" fill="#C65132"/>
<path d="M47.0657 27.0224C45.3562 27.0224 43.7565 26.7087 42.4078 26.1598C43.0037 28.6535 44.8544 30.4727 47.0657 30.4727C49.2771 30.4727 51.112 28.6535 51.7237 26.1598C50.3592 26.6931 48.7752 27.0224 47.0657 27.0224Z" fill="white"/>
<path d="M42.0784 20.2786C41.953 19.6199 42.3921 18.9768 43.0508 18.8671C43.7095 18.7416 44.3525 19.1807 44.4623 19.8394" stroke="#3F2E21" stroke-width="4" stroke-miterlimit="10" stroke-linecap="round" stroke-linejoin="round"/>
<path d="M39.9925 18.1142L44.1172 16.0597" stroke="#DD6944" stroke-width="8" stroke-miterlimit="10" stroke-linecap="round" stroke-linejoin="round"/>
<path d="M51.8648 17.9731C51.7393 17.3144 51.112 16.8753 50.4533 17.0007C49.7946 17.1262 49.3555 17.7535 49.4809 18.4122" stroke="#3F2E21" stroke-width="4" stroke-miterlimit="10" stroke-linecap="round" stroke-linejoin="round"/>
<path d="M52.947 15.7618L48.3517 15.354" stroke="#DD6944" stroke-width="8" stroke-miterlimit="10" stroke-linecap="round" stroke-linejoin="round"/>
<path d="M54.0762 8.50038C54.3114 9.47275 56.115 16.0754 56.115 16.0754H56.8992L55.2211 7.1673L54.0762 8.50038Z" fill="#C65132"/>
<path d="M33.3428 27.2106C35.4563 27.2106 37.1695 25.4974 37.1695 23.3839C37.1695 21.2704 35.4563 19.5571 33.3428 19.5571C31.2293 19.5571 29.5161 21.2704 29.5161 23.3839C29.5161 25.4974 31.2293 27.2106 33.3428 27.2106Z" fill="#FBC3AA"/>
<path d="M33.876 25.3913C34.9847 25.3913 35.8835 24.4925 35.8835 23.3838C35.8835 22.2752 34.9847 21.3764 33.876 21.3764C32.7673 21.3764 31.8685 22.2752 31.8685 23.3838C31.8685 24.4925 32.7673 25.3913 33.876 25.3913Z" fill="#F2AD91"/>
<path d="M57.1187 0C58.9694 4.81479 56.5698 10.2099 51.755 12.0448C46.9402 13.8954 41.5452 11.4959 39.7102 6.6811L57.1187 0Z" fill="#DD6944"/>
<path d="M46.2659 2.0545C48.0538 5.47347 46.7207 9.69229 43.3017 11.4802C39.8828 13.2681 35.6639 11.935 33.876 8.51604L46.2659 2.0545Z" fill="#DD6944"/>
<path d="M37.1852 47.4891V44.7289C37.1852 42.4862 35.3659 40.9649 33.1075 40.9649L31.696 41.4981V40.8551C31.696 40.4787 31.7901 40.118 31.947 39.7886C32.5273 39.522 33.1703 39.3809 33.8603 39.3809C34.7386 39.3809 35.5541 39.6161 36.2599 40.0396C37.295 40.6512 38.0792 41.6549 38.4085 42.8312C38.5183 43.239 38.581 43.6624 38.581 44.1015C38.5967 45.4346 38.0478 46.6266 37.1852 47.4891Z" fill="#25314C"/>
<path d="M39.1613 74.4018C41.6298 74.4018 43.631 72.4006 43.631 69.932C43.631 67.4635 41.6298 65.4623 39.1613 65.4623C36.6927 65.4623 34.6915 67.4635 34.6915 69.932C34.6915 72.4006 36.6927 74.4018 39.1613 74.4018Z" fill="#FBC3AA"/>
<path d="M44.4936 71.2965L42.2509 70.1986C41.6549 69.9007 41.404 69.1792 41.702 68.5833L42.2352 67.5011L45.5601 69.1322C46.156 69.4302 46.407 70.1516 46.109 70.7476C45.8267 71.3592 45.1053 71.5945 44.4936 71.2965Z" fill="#F2AD91"/>
<path d="M39.82 74.7625L40.4317 71.9865C40.5885 71.2337 41.3256 70.7632 42.0784 70.9358L43.2547 71.2024C43.3488 71.218 43.4115 71.3122 43.3801 71.4063L42.5176 75.3584C42.3607 76.1112 41.6236 76.5818 40.8708 76.4092C40.1337 76.2367 39.6475 75.4996 39.82 74.7625Z" fill="#F2AD91"/>
<path d="M40.9492 70.6848C42.3293 69.2106 42.1254 66.8737 40.51 65.6504C37.3106 63.2195 35.0679 59.5183 34.6131 55.2681C34.2367 51.8648 35.0366 48.6027 36.6519 45.8738C37.3263 44.7446 37.3106 43.286 36.5578 42.2039C35.162 40.165 32.1351 40.2434 30.8648 42.3293C28.528 46.2031 27.3674 50.8297 27.8222 55.6758C28.4182 61.9962 31.696 67.4854 36.4324 71.0769C37.8282 72.1277 39.7729 71.9395 40.9492 70.6848Z" fill="#DD3142"/>
<path d="M36.6677 45.8738C37.0912 45.168 37.2323 44.3525 37.1069 43.5683C36.4482 44.2584 35.7738 44.9171 35.5856 45.2307C33.7506 48.3047 32.9821 51.8334 33.3742 55.4092C33.8604 59.8319 36.1815 63.941 39.7573 66.6542C40.1337 66.9365 41.2629 68.1911 41.7962 69.038C42.0471 67.8147 41.5923 66.4817 40.5101 65.6504C37.3107 63.2195 35.068 59.5183 34.6132 55.2681C34.2525 51.8491 35.0367 48.6027 36.6677 45.8738Z" fill="#D82B45"/>
<path d="M46.062 52.2882C46.8414 52.2882 47.4735 51.6564 47.4735 50.8767C47.4735 50.0971 46.8414 49.4652 46.062 49.4652C45.2823 49.4652 44.6505 50.0971 44.6505 50.8767C44.6505 51.6564 45.2823 52.2882 46.062 52.2882Z" fill="#DD3142"/>
<path d="M43.4742 55.7856C43.864 55.7856 44.18 55.4696 44.18 55.0799C44.18 54.6902 43.864 54.3741 43.4742 54.3741C43.0845 54.3741 42.7685 54.6902 42.7685 55.0799C42.7685 55.4696 43.0845 55.7856 43.4742 55.7856Z" fill="#DD3142"/>
<path d="M49.5751 53.4959C49.9648 53.4959 50.2808 53.1799 50.2808 52.7901C50.2808 52.4004 49.9648 52.0844 49.5751 52.0844C49.1853 52.0844 48.8693 52.4004 48.8693 52.7901C48.8693 53.1799 49.1853 53.4959 49.5751 53.4959Z" fill="#DD3142"/>
<path d="M48.0224 56.4914C48.4121 56.4914 48.7282 56.1754 48.7282 55.7856C48.7282 55.3959 48.4121 55.0799 48.0224 55.0799C47.6327 55.0799 47.3167 55.3959 47.3167 55.7856C47.3167 56.1754 47.6327 56.4914 48.0224 56.4914Z" fill="#DD3142"/>
<path opacity="0.69" d="M44.328 22.5871C45.3083 22.2981 46.0078 21.7405 45.8902 21.3419C45.7727 20.9431 44.8827 20.854 43.9023 21.1429C42.922 21.4319 42.2225 21.9893 42.34 22.3881C42.4574 22.7869 43.3475 22.876 44.328 22.5871Z" fill="#F2AD91"/>
<path opacity="0.69" d="M51.5742 20.6855C52.5875 20.5514 53.3646 20.1085 53.3102 19.6964C53.2556 19.2842 52.3899 19.0587 51.3766 19.1928C50.3633 19.3269 49.5862 19.7698 49.6408 20.1819C49.6952 20.5941 50.5609 20.8196 51.5742 20.6855Z" fill="#F2AD91"/>
<path d="M71.1083 31.8529C71.4894 31.8529 71.7983 31.5439 71.7983 31.1628C71.7983 30.7817 71.4894 30.4727 71.1083 30.4727C70.7272 30.4727 70.4182 30.7817 70.4182 31.1628C70.4182 31.5439 70.7272 31.8529 71.1083 31.8529Z" fill="#BCBCBC"/>
</svg>
